<svg width="512" height="512" viewBox="0 0 512 512" fill="none" xmlns="http://www.w3.org/2000/svg">
<rect width="512" height="512" rx="25" fill="#3D3B40"/>
<g clip-path="url(#clip0_4_23)">
<g filter="url(#filter0_d_4_23)">
<path d="M103.906 342.245H87.4697C82.727 342.245 79.7015 342 78.3931 341.509C77.0848 341.019 76.3488 339.792 76.1853 337.829C76.1853 336.684 76.5942 335.702 77.4119 334.884C78.2296 334.067 79.2926 333.576 80.6009 333.412C82.8905 333.412 85.2619 332.676 87.715 331.204C90.1682 329.732 92.1307 327.932 93.6025 325.806C95.7286 321.389 105.705 295.463 123.531 248.026C143.319 197.317 153.541 171.636 154.195 170.981C154.849 170.327 155.749 170 156.893 170C158.038 170 158.938 170.327 159.592 170.981C159.755 171.145 170.876 195.518 192.954 244.1C213.888 292.355 225.336 318.2 227.298 321.635C231.06 329.486 235.394 333.412 240.3 333.412C241.445 333.412 242.426 333.821 243.244 334.639C244.061 335.457 244.47 336.52 244.47 337.829C244.47 339.792 243.653 341.019 242.017 341.509C240.382 342 236.293 342.245 229.751 342.245H204.729C179.708 342.245 167.033 342.082 166.706 341.755C165.398 340.937 164.743 339.71 164.743 338.074C164.743 336.766 165.152 335.702 165.97 334.884C166.788 334.067 167.932 333.576 169.404 333.412C171.857 333.412 174.883 332.594 178.481 330.959C182.079 329.323 183.878 327.687 183.878 326.051C183.878 321.471 181.588 312.883 177.009 300.288L174.801 293.663H120.342L119.851 298.08C118.052 305.441 117.153 312.147 117.153 318.2C117.153 320.653 117.316 322.78 117.643 324.579C117.97 326.379 118.297 327.687 118.625 328.505C118.952 329.323 119.606 330.141 120.587 330.959C121.568 331.777 122.141 332.267 122.304 332.431C122.468 332.594 123.204 332.84 124.512 333.167L125.739 333.412C129.337 334.067 131.135 335.539 131.135 337.829C131.135 339.792 130.481 341.019 129.173 341.509C127.865 342 124.839 342.245 120.096 342.245H103.906ZM192.954 325.315C192.954 328.096 191.973 330.795 190.011 333.412H223.864C221.411 329.977 212.907 311.902 198.351 279.187C193.609 268.554 189.765 259.967 186.822 253.424L157.384 185.703C157.22 185.703 155.749 189.384 152.968 196.745C150.188 204.106 148.798 208.113 148.798 208.767C148.798 209.585 152.478 218.337 159.837 235.021C167.197 251.706 174.556 269.454 181.915 288.265C189.275 307.077 192.954 319.427 192.954 325.315ZM171.122 284.34C171.122 283.685 167.115 273.871 159.101 254.896C151.088 235.921 146.181 225.043 144.382 222.262L139.476 236.494C133.916 249.907 128.437 266.101 123.04 285.076H147.081C163.108 285.076 171.122 284.83 171.122 284.34ZM110.039 330.223C109.384 329.078 108.812 325.806 108.321 320.408V313.292L105.132 320.899C102.352 327.278 100.88 330.55 100.717 330.713L98.9994 332.922L105.132 333.412H111.02C110.693 332.431 110.366 331.368 110.039 330.223Z" fill="#EEEEEE"/>
<path d="M103.906 342.245H87.4697C82.727 342.245 79.7015 342 78.3931 341.509C77.0848 341.019 76.3488 339.792 76.1853 337.829C76.1853 336.684 76.5942 335.702 77.4119 334.884C78.2296 334.067 79.2926 333.576 80.6009 333.412C82.8905 333.412 85.2619 332.676 87.715 331.204C90.1682 329.732 92.1307 327.932 93.6025 325.806C95.7286 321.389 105.705 295.463 123.531 248.026C143.319 197.317 153.541 171.636 154.195 170.981C154.849 170.327 155.749 170 156.893 170C158.038 170 158.938 170.327 159.592 170.981C159.755 171.145 170.876 195.518 192.954 244.1C213.888 292.355 225.336 318.2 227.298 321.635C231.06 329.486 235.394 333.412 240.3 333.412C241.445 333.412 242.426 333.821 243.244 334.639C244.061 335.457 244.47 336.52 244.47 337.829C244.47 339.792 243.653 341.019 242.017 341.509C240.382 342 236.293 342.245 229.751 342.245H204.729C179.708 342.245 167.033 342.082 166.706 341.755C165.398 340.937 164.743 339.71 164.743 338.074C164.743 336.766 165.152 335.702 165.97 334.884C166.788 334.067 167.932 333.576 169.404 333.412C171.857 333.412 174.883 332.594 178.481 330.959C182.079 329.323 183.878 327.687 183.878 326.051C183.878 321.471 181.588 312.883 177.009 300.288L174.801 293.663H120.342L119.851 298.08C118.052 305.441 117.153 312.147 117.153 318.2C117.153 320.653 117.316 322.78 117.643 324.579C117.97 326.379 118.297 327.687 118.625 328.505C118.952 329.323 119.606 330.141 120.587 330.959C121.568 331.777 122.141 332.267 122.304 332.431C122.468 332.594 123.204 332.84 124.512 333.167L125.739 333.412C129.337 334.067 131.135 335.539 131.135 337.829C131.135 339.792 130.481 341.019 129.173 341.509C127.865 342 124.839 342.245 120.096 342.245H103.906ZM192.954 325.315C192.954 328.096 191.973 330.795 190.011 333.412H223.864C221.411 329.977 212.907 311.902 198.351 279.187C193.609 268.554 189.765 259.967 186.822 253.424L157.384 185.703C157.22 185.703 155.749 189.384 152.968 196.745C150.188 204.106 148.798 208.113 148.798 208.767C148.798 209.585 152.478 218.337 159.837 235.021C167.197 251.706 174.556 269.454 181.915 288.265C189.275 307.077 192.954 319.427 192.954 325.315ZM171.122 284.34C171.122 283.685 167.115 273.871 159.101 254.896C151.088 235.921 146.181 225.043 144.382 222.262L139.476 236.494C133.916 249.907 128.437 266.101 123.04 285.076H147.081C163.108 285.076 171.122 284.83 171.122 284.34ZM110.039 330.223C109.384 329.078 108.812 325.806 108.321 320.408V313.292L105.132 320.899C102.352 327.278 100.88 330.55 100.717 330.713L98.9994 332.922L105.132 333.412H111.02C110.693 332.431 110.366 331.368 110.039 330.223Z" stroke="#EEEEEE"/>
</g>
<g filter="url(#filter1_d_4_23)">
<path d="M254.528 178.588C254.528 176.952 255.428 175.562 257.227 174.417H335.236L336.953 175.398C338.589 177.688 338.589 179.651 336.953 181.287C335.809 182.432 333.028 183.004 328.613 183.004C322.725 183.495 319.127 184.395 317.819 185.703C317.001 186.685 316.511 189.302 316.347 193.555C316.183 197.808 316.102 208.277 316.102 224.961L316.592 257.84L342.841 232.568C357.723 218.827 366.718 210.076 369.825 206.314C372.933 202.552 374.568 198.789 374.732 195.027C374.732 192.083 373.914 189.466 372.278 187.175C370.643 184.885 368.435 183.495 365.655 183.004C362.384 182.514 360.749 181.041 360.749 178.588C360.749 176.788 361.566 175.643 363.202 175.153C364.837 174.662 368.517 174.417 374.241 174.417H394.602H425.757C427.719 175.562 428.701 176.952 428.701 178.588C428.701 179.733 428.292 180.714 427.474 181.532C426.656 182.35 425.511 182.841 424.04 183.004C417.007 183.004 406.868 188.484 393.621 199.444C390.023 202.552 381.927 210.076 369.335 222.017C356.742 233.958 350.446 240.01 350.446 240.174C350.446 240.501 361.975 254.405 385.035 281.886C408.094 309.367 420.932 324.416 423.549 327.033C427.801 331.286 431.072 333.412 433.361 333.412C434.506 333.412 435.488 333.903 436.305 334.884C437.123 335.866 437.532 337.011 437.532 338.32C437.532 339.792 436.714 341.1 435.079 342.245H402.207C380.456 342.245 369.171 341.918 368.353 341.264C367.372 340.119 366.882 338.974 366.882 337.829C366.882 336.52 367.454 335.457 368.599 334.639C369.744 333.821 371.297 333.412 373.26 333.412C375.222 333.249 376.367 333.003 376.694 332.676C377.021 332.349 377.021 331.531 376.694 330.223L347.257 294.154L323.216 265.937L319.291 269.127L316.102 272.562V300.288C316.429 317.464 316.756 326.706 317.083 328.014C317.574 330.631 319.454 332.185 322.725 332.676C323.052 332.84 325.015 333.085 328.613 333.412C332.701 333.412 335.481 333.985 336.953 335.13C338.425 336.929 338.425 338.974 336.953 341.264L335.236 342.245H257.227C255.428 341.427 254.528 340.037 254.528 338.074C254.528 334.966 257.635 333.412 263.85 333.412C270.555 332.922 274.317 331.531 275.134 329.241C275.952 327.932 276.361 304.296 276.361 258.331C276.361 212.366 275.952 188.566 275.134 186.93C274.153 184.804 270.392 183.495 263.85 183.004C257.635 183.004 254.528 181.532 254.528 178.588ZM308.006 258.331V206.314C308.006 192.901 308.497 185.131 309.478 183.004H282.984C283.475 184.149 283.802 184.967 283.966 185.458C284.129 185.949 284.293 188.811 284.456 194.046C284.62 199.28 284.783 206.314 284.947 215.147C285.11 223.98 285.11 238.375 284.947 258.331C284.947 292.682 284.865 313.292 284.702 320.163C284.538 327.033 284.047 331.286 283.23 332.922C283.066 333.085 282.984 333.249 282.984 333.412H309.478C308.497 331.449 308.006 323.761 308.006 310.348V258.331ZM395.093 186.93L399.999 183.004H380.374L382.091 185.703C382.091 185.867 382.255 186.848 382.582 188.648C382.909 190.447 383.318 191.674 383.808 192.328V196.009L386.997 193.31C387.488 192.982 388.714 192.001 390.677 190.365C392.639 188.729 394.111 187.584 395.093 186.93ZM377.675 286.548L343.822 246.799C343.822 246.635 343.168 247.126 341.86 248.271C340.551 249.416 338.916 251.134 336.953 253.424C332.374 257.186 330.085 259.476 330.085 260.294C330.085 260.457 330.085 260.539 330.085 260.539L330.33 261.03L379.883 319.917C383.972 325.642 386.016 329.65 386.016 331.94V333.412H416.925L413.736 329.732C413.082 329.078 401.062 314.683 377.675 286.548Z" fill="#EEEEEE"/>
<path d="M254.528 178.588C254.528 176.952 255.428 175.562 257.227 174.417H335.236L336.953 175.398C338.589 177.688 338.589 179.651 336.953 181.287C335.809 182.432 333.028 183.004 328.613 183.004C322.725 183.495 319.127 184.395 317.819 185.703C317.001 186.685 316.511 189.302 316.347 193.555C316.183 197.808 316.102 208.277 316.102 224.961L316.592 257.84L342.841 232.568C357.723 218.827 366.718 210.076 369.825 206.314C372.933 202.552 374.568 198.789 374.732 195.027C374.732 192.083 373.914 189.466 372.278 187.175C370.643 184.885 368.435 183.495 365.655 183.004C362.384 182.514 360.749 181.041 360.749 178.588C360.749 176.788 361.566 175.643 363.202 175.153C364.837 174.662 368.517 174.417 374.241 174.417H394.602H425.757C427.719 175.562 428.701 176.952 428.701 178.588C428.701 179.733 428.292 180.714 427.474 181.532C426.656 182.35 425.511 182.841 424.04 183.004C417.007 183.004 406.868 188.484 393.621 199.444C390.023 202.552 381.927 210.076 369.335 222.017C356.742 233.958 350.446 240.01 350.446 240.174C350.446 240.501 361.975 254.405 385.035 281.886C408.094 309.367 420.932 324.416 423.549 327.033C427.801 331.286 431.072 333.412 433.361 333.412C434.506 333.412 435.488 333.903 436.305 334.884C437.123 335.866 437.532 337.011 437.532 338.32C437.532 339.792 436.714 341.1 435.079 342.245H402.207C380.456 342.245 369.171 341.918 368.353 341.264C367.372 340.119 366.882 338.974 366.882 337.829C366.882 336.52 367.454 335.457 368.599 334.639C369.744 333.821 371.297 333.412 373.26 333.412C375.222 333.249 376.367 333.003 376.694 332.676C377.021 332.349 377.021 331.531 376.694 330.223L347.257 294.154L323.216 265.937L319.291 269.127L316.102 272.562V300.288C316.429 317.464 316.756 326.706 317.083 328.014C317.574 330.631 319.454 332.185 322.725 332.676C323.052 332.84 325.015 333.085 328.613 333.412C332.701 333.412 335.481 333.985 336.953 335.13C338.425 336.929 338.425 338.974 336.953 341.264L335.236 342.245H257.227C255.428 341.427 254.528 340.037 254.528 338.074C254.528 334.966 257.635 333.412 263.85 333.412C270.555 332.922 274.317 331.531 275.134 329.241C275.952 327.932 276.361 304.296 276.361 258.331C276.361 212.366 275.952 188.566 275.134 186.93C274.153 184.804 270.392 183.495 263.85 183.004C257.635 183.004 254.528 181.532 254.528 178.588ZM308.006 258.331V206.314C308.006 192.901 308.497 185.131 309.478 183.004H282.984C283.475 184.149 283.802 184.967 283.966 185.458C284.129 185.949 284.293 188.811 284.456 194.046C284.62 199.28 284.783 206.314 284.947 215.147C285.11 223.98 285.11 238.375 284.947 258.331C284.947 292.682 284.865 313.292 284.702 320.163C284.538 327.033 284.047 331.286 283.23 332.922C283.066 333.085 282.984 333.249 282.984 333.412H309.478C308.497 331.449 308.006 323.761 308.006 310.348V258.331ZM395.093 186.93L399.999 183.004H380.374L382.091 185.703C382.091 185.867 382.255 186.848 382.582 188.648C382.909 190.447 383.318 191.674 383.808 192.328V196.009L386.997 193.31C387.488 192.982 388.714 192.001 390.677 190.365C392.639 188.729 394.111 187.584 395.093 186.93ZM377.675 286.548L343.822 246.799C343.822 246.635 343.168 247.126 341.86 248.271C340.551 249.416 338.916 251.134 336.953 253.424C332.374 257.186 330.085 259.476 330.085 260.294C330.085 260.457 330.085 260.539 330.085 260.539L330.33 261.03L379.883 319.917C383.972 325.642 386.016 329.65 386.016 331.94V333.412H416.925L413.736 329.732C413.082 329.078 401.062 314.683 377.675 286.548Z" stroke="#EEEEEE"/>
</g>
</g>
<defs>
<filter id="filter0_d_4_23" x="76.1853" y="170" width="175.285" height="179.245" filterUnits="userSpaceOnUse" color-interpolation-filters="sRGB">
<feFlood flood-opacity="0" result="BackgroundImageFix"/>
<feColorMatrix in="SourceAlpha" type="matrix" values="0 0 0 0 0 0 0 0 0 0 0 0 0 0 0 0 0 0 127 0" result="hardAlpha"/>
<feOffset dx="5" dy="5"/>
<feGaussianBlur stdDeviation="1"/>
<feComposite in2="hardAlpha" operator="out"/>
<feColorMatrix type="matrix" values="0 0 0 0 0 0 0 0 0 0 0 0 0 0 0 0 0 0 0.25 0"/>
<feBlend mode="normal" in2="BackgroundImageFix" result="effect1_dropShadow_4_23"/>
<feBlend mode="normal" in="SourceGraphic" in2="effect1_dropShadow_4_23" result="shape"/>
</filter>
<filter id="filter1_d_4_23" x="254.528" y="174.417" width="190.004" height="174.829" filterUnits="userSpaceOnUse" color-interpolation-filters="sRGB">
<feFlood flood-opacity="0" result="BackgroundImageFix"/>
<feColorMatrix in="SourceAlpha" type="matrix" values="0 0 0 0 0 0 0 0 0 0 0 0 0 0 0 0 0 0 127 0" result="hardAlpha"/>
<feOffset dx="5" dy="5"/>
<feGaussianBlur stdDeviation="1"/>
<feComposite in2="hardAlpha" operator="out"/>
<feColorMatrix type="matrix" values="0 0 0 0 0 0 0 0 0 0 0 0 0 0 0 0 0 0 0.25 0"/>
<feBlend mode="normal" in2="BackgroundImageFix" result="effect1_dropShadow_4_23"/>
<feBlend mode="normal" in="SourceGraphic" in2="effect1_dropShadow_4_23" result="shape"/>
</filter>
<clipPath id="clip0_4_23">
<rect width="368" height="172" fill="white" transform="translate(72 170)"/>
</clipPath>
</defs>
</svg>
